<svg xmlns="http://www.w3.org/2000/svg" viewBox="0 0 2500 2500" width="2500" height="2500"><g transform="translate(1849.0 625.0) rotate(0.0 193.0 308.0) scale(1.335968352086499 1.3388568422974436)"><svg width="288.929" height="460.094" viewBox="0 0 288.929 460.094"><path d="M276.286 449.67c-6.595 0-14.965-4.32-21.271-7.98-.629-.409-59.151-38.615-117.086-78.019C20.347 283.698 19.677 276.843 19.456 274.59c-.653-6.672-1.943-227.746-.098-259.985.347-6.051 2.686-10.644 6.586-12.935 3.88-2.278 8.954-2.11 14.288.478 3.542 1.717 10.212 5.842 10.495 6.017l215.933 123.42c.704.414 17.03 10.215 19.984 29.551.776 5.08.66 10.381.549 15.508-.037 1.696-.074 3.381-.078 5.043-.025 9.688-.05 40.723-.075 71.833-.025 31.333-.05 62.744-.076 72.501-.04 15.65-.081 35.029-.121 54.438-.041 19.707-.082 39.444-.123 55.337.041 6.364-1.681 10.603-5.116 12.596-1.548.897-3.355 1.28-5.319 1.28zM32.068 2.077c-1.885 0-3.614.438-5.111 1.317-3.305 1.941-5.295 5.963-5.602 11.324-1.844 32.209-.561 253.016.091 259.676.299 3.054 15.975 18.498 117.607 87.622 57.919 39.394 116.425 77.589 117.009 77.97 7.708 4.474 18.693 10.065 24.538 6.673 2.771-1.606 4.156-5.259 4.12-10.854v-.01c.041-15.894.082-35.633.123-55.342.04-19.408.081-38.788.121-54.439.025-9.756.05-41.165.076-72.497.025-31.112.05-62.148.075-71.837.004-1.674.041-3.371.079-5.08.11-5.042.223-10.255-.526-15.162-2.807-18.375-18.849-28.028-19.011-28.124L49.705 9.883c-.099-.061-6.896-4.264-10.345-5.937-2.565-1.243-5.04-1.869-7.292-1.869z"/><path d="M283.364 151.638c-3.316-7.497-8.809-14.135-15.5-18.573C244.804 117.772 42.39 4.484 38.621 2.518c-6.112-3.189-11.464-.362-11.464-.362L7.584 12.984s252.455 139.267 256.125 146.034l19.654-7.38z" fill="#fff"/><path d="M263.71 160.019a.998.998 0 0 1-.879-.523C258.651 153.45 76.813 52.317 7.102 13.861a1 1 0 0 1-.001-1.751L26.673 1.281c.254-.135 5.908-3.04 12.41.351 1.518.792 205.261 114.636 229.333 130.602 6.806 4.514 12.439 11.262 15.862 19.001a1 1 0 0 1-.563 1.341l-19.655 7.381a1.001 1.001 0 0 1-.351.063zM9.652 12.984c31.573 17.423 240.823 133.063 254.301 144.875l18.056-6.78c-3.302-6.989-8.49-13.063-14.698-17.18C243.266 117.951 39.675 4.196 38.158 3.405c-5.545-2.894-10.336-.468-10.537-.363z"/><path d="M263.709 159.018c1.678 3.095.387 262.485.294 298.682l17.872-10.3s4.378-2.074 4.378-11.694c0-1.239 3.592-246.812.258-272.931-.486-3.811-1.571-7.571-3.148-11.137z"/><path d="M264.003 458.7a1 1 0 0 1-1-1.003c.013-5.192.051-14.977.102-27.938.281-72.383 1.028-264.465-.325-270.372a.999.999 0 0 1 .578-1.305l19.655-7.381a1.002 1.002 0 0 1 1.266.532c1.649 3.729 2.735 7.57 3.226 11.415 2.905 22.767.574 212.428-.209 270.015-.026 1.901-.041 2.954-.041 3.044 0 10.136-4.748 12.501-4.95 12.597l-17.801 10.263a1.003 1.003 0 0 1-.5.134zm.769-299.013c.938 10.447 1.03 90.598.333 270.079-.045 11.635-.08 20.71-.097 26.2l16.368-9.433c.097-.051 3.878-2.083 3.878-10.827 0-.079.014-1.142.041-3.071.783-57.554 3.114-247.097.225-269.733-.428-3.356-1.335-6.714-2.698-9.993l-18.049 6.778z"/><path d="M268.246 446.208c.081-31.545.951-269.698-.066-276.352-2.916-19.089-19.492-26.994-19.492-26.994S25.857 15.172 22.32 13.457C12.084 8.494.964 13.011 1 24.993c.099 32.66.158 270.985.775 277.295 1.353 13.828 11.854 21.941 21.753 28.157 30.379 19.077 214.513 120.79 214.513 120.79 10.431 6.054 30.343 16.337 30.204-5.027z" fill="#fff"/><path d="M258.811 460.08c-6.595 0-14.965-4.32-21.271-7.98-1.823-1.007-184.488-101.934-214.543-120.809-10.215-6.414-20.843-14.865-22.216-28.905C.31 297.571.163 161.029.075 79.447.046 53.266.024 32.983 0 24.996c-.017-5.454 2.183-9.846 6.194-12.367 4.555-2.864 10.747-2.892 16.563-.071 3.527 1.711 217.329 124.223 226.429 129.438.63.297 17.021 8.319 19.983 27.71.818 5.361.466 150.16.13 258.609l-.054 17.89c.041 6.364-1.681 10.603-5.117 12.596-1.547.897-3.354 1.28-5.318 1.28zM14.078 12.461c-2.499 0-4.845.62-6.82 1.861C3.853 16.463 1.986 20.251 2 24.99c.024 7.986.046 28.271.074 54.454.088 81.546.235 218.027.696 222.746 1.286 13.146 10.992 20.94 21.289 27.407 30.009 18.845 212.624 119.744 214.465 120.762 7.772 4.51 18.757 10.103 24.601 6.71 2.77-1.607 4.156-5.259 4.12-10.854v-.01l.054-17.896c.193-62.445.782-252.474-.107-258.301-2.804-18.354-18.773-26.166-18.934-26.243C245.964 142.453 25.35 16.038 21.884 14.357c-2.606-1.264-5.284-1.896-7.806-1.896z"/><ellipse cx="135.565" cy="174.23" fill="#F59E0B" rx="51.474" ry="89.733" transform="matrix(.8660254 -.5 .5 .8660254 -68.953 91.125)"/><path d="M164.251 257.079c-24.057 0-54.12-21.956-74.129-56.612-12.07-20.906-18.748-43.275-18.803-62.985-.056-19.913 6.649-34.768 18.88-41.829 25.056-14.469 65.794 9.013 90.81 52.341 25.015 43.327 24.98 90.347-.077 104.814-5.015 2.896-10.662 4.271-16.681 4.271zM107.01 93.34c-5.714 0-11.061 1.302-15.811 4.045-11.583 6.688-17.934 20.926-17.88 40.091.054 19.367 6.637 41.383 18.535 61.991 24.463 42.372 63.973 65.528 88.078 51.608 24.103-13.916 23.809-59.71-.655-102.082-19.642-34.021-48.988-55.653-72.267-55.653zm117.368 265.126c-.92 0-1.84-.243-2.678-.729L49.295 257.683a14.743 14.743 0 0 1-7.32-12.697l-.02-18.313a5.116 5.116 0 0 1 2.578-4.476 5.112 5.112 0 0 1 5.163-.005l173.081 99.65a13.883 13.883 0 0 1 6.937 11.998v19.28c0 1.932-1 3.66-2.673 4.624a5.33 5.33 0 0 1-2.663.721zM43.955 226.671l.02 18.313a12.737 12.737 0 0 0 6.324 10.969l172.405 100.054a3.296 3.296 0 0 0 3.338.006 3.302 3.302 0 0 0 1.671-2.891v-19.28c0-4.224-2.274-8.157-5.935-10.266l-173.08-99.651a3.14 3.14 0 0 0-3.163.004 3.133 3.133 0 0 0-1.58 2.742z"/><path d="M73.614 309.396s-1.136 16.997 13.775 25.558l96.306 56.208c4.811 2.808 11.156-.294 12.767-5.626 2.544-8.42-.614-18.42-9.833-24.315l-99.544-59.43c-5.941-3.403-12.898.782-13.471 7.605z" fill="#F59E0B"/><path d="M187.636 393.214a8.78 8.78 0 0 1-4.445-1.188l-96.306-56.208c-15.27-8.766-14.281-26.312-14.269-26.487v-.018c.313-3.726 2.395-6.945 5.569-8.612 2.987-1.566 6.411-1.485 9.396.223l99.56 59.44c9.019 5.766 13.138 15.992 10.277 25.462-.913 3.021-3.246 5.528-6.242 6.706a9.697 9.697 0 0 1-3.542.683zM74.612 309.469c-.023.414-.786 16.545 13.275 24.618l96.312 56.212c1.866 1.088 4.083 1.22 6.247.37 2.431-.955 4.322-2.981 5.059-5.422 2.599-8.604-1.184-17.921-9.414-23.183l-99.518-59.415c-2.364-1.354-5.087-1.421-7.456-.179-2.563 1.346-4.247 3.962-4.505 6.998z"/></svg></g><g transform="translate(636.0 196.0) rotate(0.0 647.5 1008.5) scale(1.0779934504614144 1.0761884893184157)"><svg width="1201.306" height="1874.207" viewBox="0 0 1201.306 1874.207"><path d="m1200.142 699.121-3.977 1143.274c-.01 3.531-1.717 6.469-4.214 8.293-3.122 2.281-36.01 20.982-36.01 20.982L853.539 836.119l310.912-120.905z"/><path d="M1155.941 1872.67a1 1 0 0 1-.96-.719L852.579 836.4a.999.999 0 0 1 .598-1.212l310.912-120.905 35.643-16.073a1 1 0 0 1 1.411.915l-3.978 1143.274c-.01 3.642-1.695 6.958-4.624 9.097-3.132 2.289-34.761 20.279-36.105 21.043a1.002 1.002 0 0 1-.495.131zM854.756 836.719l301.791 1033.456c5.743-3.272 32.093-18.306 34.814-20.294 2.409-1.76 3.796-4.489 3.804-7.488l3.972-1141.721-34.274 15.455z"/><path d="M853.702 836.284 10.847 25.051S41.546 5.894 49.952 2.466C55.132.354 61.295.365 67.575 3.548L1160.162 629.83c26.067 14.918 40.272 39.422 40.144 69.456l-35.691 16.093z" fill="#fff"/><path d="M853.702 837.284a1 1 0 0 1-.693-.279L10.154 25.772a1.001 1.001 0 0 1 .164-1.57c1.256-.783 30.867-19.241 39.256-22.662 5.807-2.368 12.36-1.972 18.453 1.116l1092.632 626.306c26.34 15.074 40.775 40.05 40.646 70.328a.998.998 0 0 1-.589.907l-35.691 16.093-310.961 120.926a1.01 1.01 0 0 1-.362.068zM12.468 25.222 853.935 835.12l310.316-120.674 35.055-15.807c-.08-29.237-14.14-53.347-39.642-67.942L67.078 4.416C61.474 1.578 55.665 1.215 50.33 3.392c-7.342 2.994-32.327 18.397-37.862 21.83z"/><path d="M1145.8 1871.794 22.605 1218.936a36.039 36.039 0 0 1-17.928-31.047L1.191 45.394C.417 29.01 15.738 15.777 32.211 24.126l1092.124 626.218c26.067 14.918 40.406 40.289 40.279 70.322l-3.303 1142.232c-.023 7.948-8.641 12.889-15.511 8.896z" fill="#fff"/><path d="M1150.987 1874.21a11.3 11.3 0 0 1-5.69-1.551L22.102 1219.8c-11.324-6.582-18.385-18.809-18.425-31.909L.191 45.397c-.415-8.754 3.648-17.018 10.605-21.521 6.457-4.179 14.425-4.414 21.866-.642l1092.169 626.243c26.046 14.906 40.91 40.855 40.781 71.194l-3.303 1142.231c-.012 4.093-2.139 7.753-5.688 9.79a11.306 11.306 0 0 1-5.634 1.518zm-4.685-3.281c2.913 1.694 6.399 1.704 9.324.027 2.923-1.677 4.674-4.69 4.684-8.061l3.303-1142.232c.128-30.035-13.998-54.7-39.775-69.451L31.714 24.993c-6.842-3.466-13.901-3.275-19.83.562C5.522 29.673 1.807 37.256 2.19 45.346l3.487 1142.54c.038 12.392 6.717 23.958 17.431 30.186z"/><path d="M1164.369 793.589 1.111 117.444l-.083-72.215C.254 28.845 15.574 15.612 32.047 23.961l1092.124 626.218c26.067 14.918 40.407 40.288 40.279 70.322z" fill="#1C1259"/><path d="M1164.369 794.589c-.174 0-.348-.045-.503-.135L.608 118.309a.999.999 0 0 1-.497-.864L.028 45.231c-.415-8.752 3.648-17.016 10.605-21.519 6.455-4.179 14.426-4.413 21.866-.643l1092.169 626.243c26.046 14.906 40.91 40.855 40.781 71.194l-.081 73.084a.997.997 0 0 1-.999.999zM2.11 116.868l1161.261 674.984.079-71.352c.128-30.037-13.998-54.702-39.775-69.453L31.551 24.829c-6.844-3.467-13.901-3.275-19.83.562-6.362 4.117-10.077 11.701-9.694 19.791z"/></svg></g><g transform="translate(562.0 1043.0) rotate(0.0 274.5 404.0) scale(1.0785388450793876 1.0780103238166903)"><svg width="509.022" height="749.529" viewBox="0 0 509.022 749.529"><path d="M498.808 274.371 23.314 1.822C21.025.507 18.705.899 16.6 2.088c-1.655.935-12.725 7.775-12.725 7.775l11.647 446.302c.006 2.065 1.232 3.892 2.894 5.008L492.295 747.97s11.813-6.835 13.396-7.897a5.215 5.215 0 0 0 2.33-4.36l-.208-445.729a17.936 17.936 0 0 0-9.005-15.613z" fill="#CACAEA"/><path d="M492.295 748.969a.995.995 0 0 1-.518-.145L17.899 462.029c-2.123-1.425-3.37-3.606-3.377-5.861L2.875 9.889c-.009-.356.172-.69.475-.877.452-.28 11.105-6.861 12.758-7.795 2.693-1.521 5.356-1.61 7.704-.263l475.493 272.548h.001a18.978 18.978 0 0 1 9.508 16.482l.208 445.726c-.007 2.123-1.018 4.014-2.773 5.191-1.592 1.068-12.969 7.652-13.452 7.932a.994.994 0 0 1-.502.136zM4.89 10.412 16.522 456.14c.005 1.612.921 3.175 2.452 4.204l473.332 286.464c2.285-1.324 11.478-6.659 12.829-7.565a4.21 4.21 0 0 0 1.887-3.533l-.208-445.726a16.971 16.971 0 0 0-8.504-14.745L22.817 2.69c-1.752-1.006-3.624-.919-5.725.269-1.421.802-10.044 6.12-12.202 7.453z"/><path d="M506.024 282.119c1.044 2.305 1.798 4.842 1.789 7.46l.203 445.723c0 1.89-.945 3.85-2.325 4.77-1.53 1.03-12.151 7.182-12.85 7.582 1.21-.94 1.515-2.512 1.526-4.272l-.204-445.723c.01-3.064-.955-5.951-2.366-8.549z"/><path d="M492.842 748.654a1 1 0 0 1-.614-1.79c.777-.604 1.129-1.68 1.14-3.488l-.204-445.716c.008-2.601-.747-5.315-2.244-8.072a1 1 0 0 1 .438-1.374l14.227-6.992a1 1 0 0 1 1.352.485c1.272 2.809 1.887 5.385 1.878 7.876l.203 445.719c0 2.246-1.113 4.497-2.771 5.603-1.599 1.076-12.346 7.296-12.909 7.618a1.004 1.004 0 0 1-.496.131zm.312-459.095c1.342 2.743 2.018 5.464 2.009 8.104l.204 445.719a11.337 11.337 0 0 1-.127 1.727c3.472-2.019 8.882-5.185 9.893-5.866 1.093-.729 1.884-2.385 1.884-3.94l-.203-445.722c.007-1.925-.418-3.927-1.293-6.099z"/><path d="M486.209 281.921 10.358 9.604C6.186 7.208.986 10.229 1 15.04l1.923 452.676c.006 2.065 1.232 3.892 2.894 5.008L487.488 747.8c3.51 2.051 7.923-.472 7.935-4.538l-.208-445.729a17.94 17.94 0 0 0-9.006-15.612z" fill="#fff"/><path d="M490.148 749.531a6.26 6.26 0 0 1-3.165-.867L5.32 473.592c-2.146-1.438-3.393-3.62-3.397-5.874L0 15.045a7.175 7.175 0 0 1 3.606-6.29 7.174 7.174 0 0 1 7.25-.019l475.85 272.317h.001a18.98 18.98 0 0 1 9.508 16.482l.208 445.726a6.21 6.21 0 0 1-3.16 5.431 6.248 6.248 0 0 1-3.115.839zM7.247 9.766c-.906 0-1.812.24-2.636.719A5.193 5.193 0 0 0 2 15.037l1.923 452.674c.004 1.591.92 3.154 2.451 4.183l481.609 275.038a4.236 4.236 0 0 0 4.287.025 4.23 4.23 0 0 0 2.152-3.697l-.208-445.726a16.973 16.973 0 0 0-8.504-14.745L9.861 10.472a5.23 5.23 0 0 0-2.614-.706z"/><path d="M427.57 402.487c-.92 0-1.84-.244-2.678-.73L101.938 214.916a14.745 14.745 0 0 1-7.321-12.698l-.02-18.313a5.111 5.111 0 0 1 2.577-4.474 5.109 5.109 0 0 1 5.164-.006l323.631 186.439a13.881 13.881 0 0 1 6.938 11.999v19.28a5.28 5.28 0 0 1-2.674 4.625 5.335 5.335 0 0 1-2.663.719zM99.761 180.731c-.545 0-1.089.144-1.585.431a3.132 3.132 0 0 0-1.579 2.742l.02 18.313a12.74 12.74 0 0 0 6.324 10.969l322.955 186.841a3.3 3.3 0 0 0 3.339.007 3.302 3.302 0 0 0 1.672-2.891v-19.28c0-4.224-2.274-8.158-5.936-10.265L101.34 181.158a3.164 3.164 0 0 0-1.579-.427z"/><path d="M321.722 306.963 101.839 180.292c-2.778-1.599-6.245.408-6.241 3.613l.019 18.313a13.697 13.697 0 0 0 6.823 11.833l219.252 126.846z" fill="#CACAEA"/><path d="M321.691 341.896c-.173 0-.346-.045-.501-.134L101.938 214.916a14.745 14.745 0 0 1-7.321-12.698l-.02-18.313a5.111 5.111 0 0 1 2.577-4.474 5.109 5.109 0 0 1 5.164-.006l219.883 126.671a1 1 0 0 1 .501.868l-.031 33.933a1 1 0 0 1-1 .999zM99.761 180.731c-.545 0-1.089.144-1.585.431a3.132 3.132 0 0 0-1.579 2.741l.02 18.313a12.74 12.74 0 0 0 6.324 10.969l217.752 125.978.028-31.623L101.34 181.158a3.164 3.164 0 0 0-1.579-.427zM427.57 501.796c-.92 0-1.84-.244-2.678-.73L101.938 314.225a14.745 14.745 0 0 1-7.321-12.698l-.02-18.313a5.111 5.111 0 0 1 2.577-4.474 5.109 5.109 0 0 1 5.164-.006l323.631 186.439a13.881 13.881 0 0 1 6.938 11.999v19.28a5.28 5.28 0 0 1-2.674 4.625 5.335 5.335 0 0 1-2.663.719zM99.761 280.04c-.545 0-1.089.144-1.585.431a3.132 3.132 0 0 0-1.579 2.742l.02 18.313a12.74 12.74 0 0 0 6.324 10.969l322.955 186.841a3.298 3.298 0 0 0 3.339.007 3.302 3.302 0 0 0 1.672-2.891v-19.28c0-4.224-2.274-8.158-5.936-10.265L101.34 280.467a3.164 3.164 0 0 0-1.579-.427z"/><path d="m222.508 349.165-120.67-69.564c-2.778-1.599-6.245.408-6.241 3.613l.019 18.313a13.697 13.697 0 0 0 6.823 11.833l120.039 69.447z" fill="#CACAEA"/><path d="M222.478 383.806c-.173 0-.346-.045-.501-.134l-120.039-69.447a14.745 14.745 0 0 1-7.321-12.698l-.02-18.313a5.111 5.111 0 0 1 2.577-4.474 5.109 5.109 0 0 1 5.164-.006l120.67 69.564a.999.999 0 0 1 .501.867l-.031 33.642a1 1 0 0 1-1 .999zM99.761 280.04c-.545 0-1.089.144-1.585.431a3.132 3.132 0 0 0-1.579 2.742l.02 18.313a12.74 12.74 0 0 0 6.324 10.969l118.539 68.579.028-31.331-120.168-69.276a3.167 3.167 0 0 0-1.579-.427zM427.57 600.796c-.92 0-1.84-.244-2.678-.73L101.938 413.225a14.745 14.745 0 0 1-7.321-12.698l-.02-18.313c-.002-1.867.962-3.539 2.577-4.474s3.545-.938 5.164-.006l323.631 186.439a13.881 13.881 0 0 1 6.938 11.999v19.28a5.28 5.28 0 0 1-2.674 4.625 5.335 5.335 0 0 1-2.663.719zM99.761 379.04c-.545 0-1.089.144-1.585.431a3.132 3.132 0 0 0-1.579 2.742l.02 18.313a12.74 12.74 0 0 0 6.324 10.969l322.955 186.841a3.298 3.298 0 0 0 3.339.007 3.302 3.302 0 0 0 1.672-2.891v-19.28c0-4.224-2.274-8.158-5.936-10.265L101.34 379.467a3.164 3.164 0 0 0-1.579-.427z"/><path d="M376.692 536.919 101.839 378.601c-2.778-1.599-6.245.408-6.241 3.613l.019 18.313a13.697 13.697 0 0 0 6.823 11.833l274.222 158.648z" fill="#CACAEA"/><path d="M376.661 572.007c-.173 0-.346-.045-.501-.134L101.938 413.225a14.745 14.745 0 0 1-7.321-12.698l-.02-18.313c-.002-1.867.962-3.539 2.577-4.474s3.545-.938 5.164-.006l274.854 158.318a1 1 0 0 1 .501.868l-.031 34.088a1 1 0 0 1-1.001.999zM99.761 379.04c-.545 0-1.089.144-1.585.431a3.132 3.132 0 0 0-1.579 2.742l.02 18.313a12.74 12.74 0 0 0 6.324 10.969l272.723 157.779.028-31.778L101.34 379.467a3.164 3.164 0 0 0-1.579-.427z"/><ellipse cx="65.921" cy="179.73" fill="#F59E0B" rx="12.783" ry="22.481" transform="matrix(.866 -.5 .5 .866 -81.0334 57.0398)"/><path d="M73.092 201.247c-6.27 0-13.888-5.584-19.107-14.625-3.088-5.348-4.807-11.077-4.84-16.132-.034-5.259 1.754-9.199 5.036-11.094 3.279-1.894 7.586-1.475 12.125 1.187 4.361 2.556 8.464 6.909 11.552 12.257s4.807 11.077 4.84 16.132c.034 5.259-1.754 9.199-5.036 11.094-1.386.799-2.933 1.181-4.57 1.181zm-14.384-41.018c-1.298 0-2.487.298-3.527.898-2.632 1.52-4.065 4.84-4.036 9.349.031 4.714 1.655 10.092 4.572 15.145 5.922 10.258 15.319 15.96 20.944 12.711 2.632-1.52 4.065-4.84 4.036-9.349-.031-4.714-1.655-10.092-4.572-15.145s-6.764-9.148-10.83-11.532c-2.353-1.378-4.598-2.077-6.587-2.077z"/><ellipse cx="65.921" cy="279.039" fill="#F59E0B" rx="12.783" ry="22.481" transform="matrix(.866 -.5 .5 .866 -130.6879 70.3446)"/><path d="M73.14 300.542c-2.348 0-4.936-.79-7.604-2.354-4.36-2.556-8.463-6.909-11.551-12.257-6.583-11.403-6.497-23.362.196-27.227 3.279-1.894 7.586-1.475 12.125 1.187 4.361 2.556 8.464 6.909 11.552 12.257s4.807 11.077 4.84 16.132c.034 5.259-1.754 9.199-5.036 11.094-1.352.78-2.879 1.168-4.522 1.168zm-14.432-41.004c-1.298 0-2.487.298-3.527.898-5.627 3.249-5.387 14.237.536 24.495 2.917 5.053 6.764 9.148 10.83 11.532 3.89 2.281 7.483 2.7 10.114 1.179 2.632-1.52 4.065-4.84 4.036-9.349-.031-4.714-1.655-10.092-4.572-15.145s-6.764-9.148-10.83-11.532c-2.353-1.379-4.598-2.078-6.587-2.078z"/><ellipse cx="65.921" cy="379.178" fill="#F59E0B" rx="12.783" ry="22.481" transform="matrix(.866 -.5 .5 .866 -180.7574 83.7607)"/><path d="M73.092 400.695c-6.269 0-13.887-5.584-19.107-14.625-6.583-11.403-6.497-23.362.196-27.227 3.279-1.894 7.586-1.475 12.125 1.187 4.361 2.556 8.464 6.909 11.552 12.257s4.807 11.077 4.84 16.132c.034 5.259-1.754 9.199-5.036 11.094-1.386.8-2.933 1.182-4.57 1.182zM55.717 385.07c5.924 10.259 15.318 15.959 20.944 12.711 2.632-1.52 4.065-4.84 4.036-9.349-.031-4.714-1.655-10.092-4.572-15.145s-6.764-9.148-10.83-11.532c-3.89-2.28-7.481-2.701-10.114-1.18-5.627 3.249-5.387 14.237.536 24.495z"/></svg></g><g transform="translate(313.0 227.0) rotate(0.0 86.0 713.5) scale(1.1290015556591202 1.1240592797513362)"><svg width="152.347" height="1269.506" viewBox="0 0 152.347 1269.506"><path d="M67.412 3.548C61.132.365 54.969.354 49.789 2.466c-8.406 3.428-39.105 22.585-39.105 22.585l96.823 93.19 43.84-66.809z" fill="#fff"/><path d="M107.507 119.241a1 1 0 0 1-.693-.279L9.99 25.772a.998.998 0 0 1 .164-1.569c1.257-.784 30.868-19.242 39.257-22.663 5.807-2.368 12.36-1.972 18.453 1.116a.586.586 0 0 1 .043.023l83.936 47.884a1 1 0 0 1 .341 1.417l-43.841 66.81a.998.998 0 0 1-.836.451zM12.304 25.222l95.028 91.463 42.596-64.912-82.99-47.344C61.298 1.577 55.5 1.217 50.167 3.392c-7.342 2.994-32.327 18.397-37.863 21.83z"/><path d="m151.347 51.558-3.98 1187.888c-.01 3.53-1.72 6.47-4.21 8.29-2.92 2.14-35.65 20.77-35.65 20.77l8.02-1196.19z"/><path d="M107.507 1269.506a1.002 1.002 0 0 1-1-1.007l8.021-1196.19a.997.997 0 0 1 .499-.858l35.82-20.758a1 1 0 0 1 1.501.869l-3.98 1187.888c-.01 3.64-1.694 6.955-4.62 9.094-2.932 2.148-34.407 20.07-35.745 20.832-.154.087-.325.13-.496.13zm9.016-1196.611-8.005 1193.884c6.459-3.684 31.562-18.028 34.048-19.849 2.407-1.76 3.793-4.488 3.801-7.486l3.975-1186.146z"/><path d="M115.516 73.98 32.047 24.252C15.575 15.903.254 29.136 1.028 45.52l3.486 1142.495a36.037 36.037 0 0 0 17.928 31.047l85.065 49.444z" fill="#FFD28C"/><path d="M107.507 1269.506c-.174 0-.348-.045-.503-.135l-85.064-49.444c-11.324-6.582-18.385-18.809-18.425-31.909L.028 45.523c-.415-8.754 3.648-17.018 10.605-21.521 6.455-4.179 14.425-4.413 21.866-.643l83.527 49.761a1 1 0 0 1 .488.866l-8.009 1194.526a.997.997 0 0 1-.504.861.967.967 0 0 1-.494.133zM21.817 22.653c-3.547 0-6.978 1.009-10.097 3.028-6.361 4.118-10.076 11.702-9.693 19.792l3.487 1142.54c.038 12.392 6.717 23.958 17.431 30.185l83.573 48.578 7.993-1192.229-82.975-49.436c-3.236-1.639-6.524-2.458-9.719-2.458z"/><path d="M32.047 24.252C15.575 15.903.254 29.136 1.028 45.52l.083 94.215 113.966 66.66.45-134.078z" fill="#F59E0B"/><path d="M115.077 207.395a.99.99 0 0 1-.505-.137L.606 140.598a.997.997 0 0 1-.495-.862L.028 45.521c-.415-8.752 3.648-17.016 10.605-21.519 6.455-4.179 14.425-4.413 21.866-.643l.047.025 83.479 48.064a1 1 0 0 1 .501.87l-.45 134.079a1 1 0 0 1-.999.998zM2.11 139.161l111.973 65.494.442-131.761-82.953-47.762c-6.882-3.479-13.93-3.285-19.852.549-6.361 4.118-10.076 11.702-9.693 19.792z"/><ellipse cx="54.456" cy="283.94" fill="#fff" rx="33.135" ry="56.015" transform="matrix(.9536 -.3011 .3011 .9536 -82.9612 29.5703)"/><path d="M65.245 339.279c-17.506 0-36.753-20.645-44.402-48.669-5.318-19.485-4.037-38.303 3.429-50.336 3.826-6.168 9.104-10.067 15.263-11.275 18.497-3.635 40.277 18.023 48.534 48.271 5.318 19.485 4.037 38.303-3.429 50.336-3.826 6.168-9.104 10.067-15.263 11.275-1.36.268-2.742.398-4.132.398zM43.741 230.593c-1.288 0-2.562.12-3.822.368-5.599 1.099-10.422 4.683-13.948 10.367-7.07 11.397-8.296 30.08-3.198 48.756 7.985 29.26 28.72 50.273 46.22 46.835 5.599-1.099 10.422-4.683 13.948-10.367 7.07-11.397 8.296-30.08 3.198-48.756-7.411-27.152-25.804-47.203-42.398-47.203z"/><ellipse cx="54.63" cy="283.906" fill="#fff" rx="26.957" ry="50.079" transform="matrix(.9564 -.2919 .2919 .9564 -80.506 28.3177)"/><path d="M64.901 333.443c-14.468.002-30.887-18.78-37.788-44.063-4.915-18.007-3.974-35.634 2.458-46.001 2.967-4.781 7.01-7.794 11.693-8.713 15.136-2.97 33.483 16.661 40.881 43.766 4.915 18.008 3.974 35.635-2.458 46.001-2.966 4.781-7.009 7.793-11.692 8.712-1.017.2-2.052.298-3.094.298zM44.45 236.359c-.944 0-1.879.088-2.801.27-4.183.821-7.675 3.446-10.378 7.804-6.148 9.911-7.003 26.931-2.229 44.42 7.129 26.115 24.417 45.114 38.567 42.33 4.183-.821 7.675-3.446 10.378-7.804 6.148-9.91 7.002-26.931 2.228-44.421-6.662-24.413-22.216-42.599-35.765-42.599z"/><path d="M52.048 298.889a.999.999 0 0 1-1-.986l-.641-46.012a1 1 0 0 1 .986-1.014.989.989 0 0 1 1.014.986l.615 44.193 18.076-11.827a1.001 1.001 0 0 1 1.096 1.674l-19.599 12.822a.984.984 0 0 1-.547.164zm33.145 223.519a.989.989 0 0 1-.496-.132l-63.765-36.569a1 1 0 0 1-.503-.854l-1.144-84.071a1.001 1.001 0 0 1 .986-1.014h.014a1 1 0 0 1 1 .986l1.136 83.501 63.27 36.285a1 1 0 0 1-.498 1.868z"/><path d="M57.64 483.329h-.038a1.001 1.001 0 0 1-.89-.626l-14.653-36.398-13.113 31.142a1.001 1.001 0 0 1-1.844-.777l14.056-33.38a1 1 0 0 1 .922-.612h.008a1 1 0 0 1 .92.626l14.726 36.577 27.873-56.473a.999.999 0 1 1 1.793.885l-28.862 58.478a1.006 1.006 0 0 1-.898.558z"/><path d="M25.88 576.799v96.487l60.629 34.61v-96.379z" fill="#fff"/><path d="M86.51 708.896c-.171 0-.342-.044-.496-.131l-60.63-34.61a1 1 0 0 1-.504-.869v-96.487a1 1 0 0 1 1.497-.867l60.63 34.718a1 1 0 0 1 .503.868v96.379a1 1 0 0 1-1 .999zm-59.63-36.19 58.63 33.468v-94.078l-58.63-33.572z"/><path d="M76.014 635.183a.996.996 0 0 1-.492-.13l-42.545-24.145a1 1 0 0 1 .986-1.739l42.545 24.145a1 1 0 0 1-.494 1.869zm-.43 19.338a.991.991 0 0 1-.498-.134l-42.259-24.352a.998.998 0 0 1-.367-1.366.998.998 0 0 1 1.365-.367l42.259 24.352a.998.998 0 0 1 .367 1.366.998.998 0 0 1-.867.501zm-.144 18.869a.994.994 0 0 1-.496-.132l-41.972-24.026a.999.999 0 1 1 .994-1.735l41.972 24.026a.999.999 0 0 1-.498 1.867z"/><path d="m81.376 803.82-49.285-26.889c-7.334-4.225-16.493 1.069-16.493 9.533v25.711c0 15.506 1.633 18.775 15.07 26.515l17.879 8.659 18.578 28.069-.85-17.858 9.893 5.229c7.878 4.538 17.716-1.148 17.716-10.24v-16.307c0-14.839.351-25.015-12.508-32.422z" fill="#fff"/><path d="M67.126 876.418a1 1 0 0 1-.834-.448l-18.427-27.841-17.632-8.54c-13.598-7.829-15.635-11.411-15.635-27.415v-25.711c0-4.336 2.241-8.22 5.996-10.391 3.754-2.17 8.238-2.173 11.996-.009l49.264 26.878.021.011c13.025 7.503 13.02 17.837 13.01 32.14v17.455c0 4.631-2.394 8.779-6.403 11.097-4.008 2.318-8.798 2.32-12.812.01l-8.312-4.392.768 16.108a1.002 1.002 0 0 1-1 1.048zm-40.531-99.97a9.965 9.965 0 0 0-4.999 1.357c-3.129 1.809-4.997 5.046-4.997 8.659v25.711c0 15.321 1.634 18.197 14.569 25.648l17.815 8.626a.992.992 0 0 1 .398.348l16.572 25.039-.678-14.229a1 1 0 0 1 1.466-.932l9.894 5.228c3.42 1.97 7.462 1.966 10.845.01 3.384-1.956 5.404-5.457 5.404-9.365v-17.456c.009-14.136.016-23.475-11.998-30.4l-49.273-26.884a10.04 10.04 0 0 0-5.018-1.36z"/><path d="m23.703 66.179 68.446 37.718" fill="#fff"/><path d="M92.147 105.897c-.326 0-.657-.08-.963-.249L22.738 67.93a2 2 0 1 1 1.93-3.503l68.446 37.718a2 2 0 0 1-.967 3.752z"/><path d="m24.378 91.708 68.446 37.718" fill="#fff"/><path d="M92.822 131.426c-.326 0-.657-.08-.963-.249L23.413 93.46a2 2 0 1 1 1.93-3.503l68.446 37.718a2 2 0 0 1-.967 3.751z"/><path d="m24.378 114.779 68.446 37.718" fill="#fff"/><path d="M92.822 154.497c-.326 0-.657-.08-.963-.249L23.413 116.53a2 2 0 1 1 1.93-3.503l68.446 37.718a2 2 0 0 1-.967 3.752z"/><path d="m29.245 948.321 4.828 15.087-2.414 9.806-9.957.755.754 5.431 8.6 12.975 3.747 10.831L30 1014.855l2.866 8.147 10.259-1.358 5.582 7.091 4.236 17.089 4.967 2.374 1.961-10.863 6.186-.905 9.505 11.165 3.772-3.47-5.129-19.613 4.073-4.677 9.052.151.453-6.337-9.807-12.673-2.716-11.316 4.526-10.41-3.319-9.052s-8.382.883-8.751.754l-6.638-7.091-3.923-17.199-5.733-2.112-2.414 11.617-6.336-.151-9.505-11.165z" fill="#fff"/><path d="M57.91 1049.197a1.01 1.01 0 0 1-.432-.098l-4.967-2.374a1 1 0 0 1-.539-.662l-4.185-16.879-5.097-6.475-9.694 1.283a1.001 1.001 0 0 1-1.074-.659l-2.866-8.147a.996.996 0 0 1 .019-.713l4.658-11.298-3.581-10.353-8.53-12.869a.998.998 0 0 1-.156-.415l-.755-5.431a.997.997 0 0 1 .915-1.135l9.235-.7 2.173-8.829-4.741-14.818a.999.999 0 0 1 .29-1.054l3.923-3.47a1 1 0 0 1 1.423.1l9.215 10.824 5.055.121 2.244-10.801a1.003 1.003 0 0 1 1.325-.735l5.733 2.112a1 1 0 0 1 .629.716l3.863 16.936 6.163 6.583c1.15-.053 4.853-.403 8.206-.756.441-.042.885.22 1.043.65l3.318 9.053a1 1 0 0 1-.021.743L76.31 989.75l2.587 10.781 9.675 12.503a1 1 0 0 1 .206.683l-.452 6.337a1 1 0 0 1-.997.929h-.017l-8.587-.143-3.421 3.927 4.996 19.102a1 1 0 0 1-.291.989l-3.771 3.47a.978.978 0 0 1-.737.262 1.005 1.005 0 0 1-.701-.35l-9.146-10.744-4.927.721-1.834 10.155c-.056.307-.251.57-.528.712a.953.953 0 0 1-.455.113zm-4.109-4.072 3.358 1.605 1.729-9.573a1 1 0 0 1 .84-.812l6.186-.905a.998.998 0 0 1 .906.341l8.831 10.374 2.564-2.359-4.979-19.032a1 1 0 0 1 .214-.91l4.074-4.677a.99.99 0 0 1 .771-.343l8.105.135.357-5.011-9.572-12.371a1.012 1.012 0 0 1-.182-.378l-2.716-11.315a.995.995 0 0 1 .056-.632l4.366-10.042-2.913-7.945c-7.852.818-8.174.705-8.409.623a1 1 0 0 1-.401-.261l-6.638-7.091a1.006 1.006 0 0 1-.244-.461l-3.803-16.67-4.136-1.523-2.178 10.481a1.026 1.026 0 0 1-1.003.796l-6.336-.151a.996.996 0 0 1-.738-.351l-8.844-10.389-2.671 2.362 4.629 14.465a.996.996 0 0 1 .019.544l-2.414 9.807a1 1 0 0 1-.896.758l-8.896.674.577 4.152 8.475 12.785c.046.07.084.146.111.225l3.747 10.831c.079.231.072.483-.021.708l-4.657 11.295 2.47 7.021 9.454-1.251a.99.99 0 0 1 .917.373l5.582 7.091c.087.111.15.24.185.378zm13.916-74.173h.01z"/><path d="M63.225 993.64c2.34 6.018 1.09 12.122-2.793 13.632s-8.928-2.145-11.268-8.164c-2.341-6.018-1.09-12.122 2.793-13.632s8.928 2.145 11.268 8.164z" fill="#FFD28C"/><path d="M58.578 1008.615c-1.611 0-3.308-.607-4.944-1.793-2.282-1.653-4.201-4.265-5.401-7.353-1.201-3.087-1.551-6.309-.985-9.069.598-2.919 2.143-4.999 4.348-5.856 2.206-.857 4.749-.367 7.161 1.381 2.282 1.653 4.201 4.265 5.401 7.353 2.579 6.633 1.103 13.189-3.362 14.926a6.105 6.105 0 0 1-2.218.411zm-4.771-22.48c-.519 0-1.018.09-1.487.273-1.551.603-2.656 2.163-3.113 4.394-.489 2.389-.173 5.209.89 7.943s2.736 5.027 4.711 6.458c1.844 1.336 3.714 1.739 5.264 1.136 3.306-1.285 4.323-6.935 2.224-12.337-1.063-2.734-2.736-5.027-4.711-6.458-1.287-.931-2.585-1.409-3.778-1.409z"/></svg></g><g transform="translate(686.0 479.0) rotate(0.0 684.0 629.0) scale(1.077867241108974 1.0775142141084126)"><svg width="1269.173" height="1167.502" viewBox="0 0 1269.173 1167.502"><path d="m1268.172 754.49-1.231 368.93c-.031 9.316-4.655 17.027-11.353 21.685-7.978 5.548-27.591 15.643-27.591 15.643l-148.343-353.276 164.038-45.704z"/><path d="M1227.997 1161.748a1 1 0 0 1-.922-.613L1078.733 807.86a1.001 1.001 0 0 1 .653-1.351l164.039-45.704 24.462-7.273a1.001 1.001 0 0 1 1.285.962l-1.23 368.93c-.03 9.114-4.325 17.316-11.781 22.502-7.942 5.523-26.902 15.298-27.705 15.712-.144.073-.301.11-.459.11zm-146.981-353.617 147.483 351.23c4.033-2.1 19.69-10.33 26.519-15.078 6.914-4.809 10.896-12.414 10.924-20.867l1.226-367.584-23.188 6.895z"/><path d="M1079.655 807.472 13.421 21.026S38.64 3.898 49.526 1.555C55.223.33 61.443 1.073 67.175 4.37l1151.931 664.975a97.845 97.845 0 0 1 49.065 85.146l-24.479 7.278z" fill="#CACAEA"/><path d="M1079.655 808.472c-.211 0-.42-.067-.594-.195L12.827 21.831a1 1 0 0 1 .032-1.632C13.895 19.495 38.365 2.934 49.316.578 55.632-.781 61.982.229 67.672 3.502l1151.934 664.976c30.69 17.651 49.684 50.61 49.565 86.016a1 1 0 0 1-.715.955l-24.479 7.278-164.056 45.708a.96.96 0 0 1-.266.037zM15.16 21.067l1064.695 785.312 163.569-45.573 23.747-7.061c-.15-34.406-18.708-66.362-48.564-83.533L66.675 5.236C61.42 2.214 55.56 1.28 49.737 2.533 40.488 4.524 20.248 17.689 15.16 21.067z"/><path d="M1198.419 1162.888 49.368 494.861A96.952 96.952 0 0 1 1 410.961V42.648c0-19.25 20.822-31.295 37.509-21.698L1190.44 685.925a97.845 97.845 0 0 1 49.065 85.146l-1.231 368.93c-.067 20.414-22.188 33.117-39.855 22.887z" fill="#fff"/><path d="M1211.723 1167.505c-4.743 0-9.485-1.25-13.805-3.752h-.002L48.866 495.726C18.725 478.272 0 445.792 0 410.961V42.648c0-9.401 4.858-17.825 12.996-22.532 8.139-4.708 17.863-4.719 26.01-.033L1190.94 685.058c30.69 17.651 49.684 50.61 49.565 86.016l-1.23 368.93c-.033 9.948-5.203 18.845-13.83 23.799-4.298 2.469-9.011 3.702-13.722 3.702zm-12.803-5.482c7.984 4.623 17.528 4.639 25.528.046 8-4.595 12.795-12.846 12.826-22.072l1.23-368.93c.115-34.689-18.493-66.982-48.564-84.276L38.008 21.816c-7.523-4.326-16.499-4.315-24.011.031S2 33.968 2 42.648v368.313c0 34.12 18.343 65.937 47.869 83.035l1149.053 668.028z"/><path d="M372.999 325.202c40.83 93.484 32.087 183.894-20.814 213.264-2.412 1.342-29.477 17.249-31.165 18.236 49.28-32.19 55.882-121.685 15.322-213.214z"/><path d="M321.02 557.701a1 1 0 0 1-.548-1.837c48.931-31.961 55.22-121.108 14.955-211.972a.999.999 0 0 1 .468-1.3l36.657-18.285a.996.996 0 0 1 1.362.495c19.822 45.384 28.638 91.969 24.821 131.172-3.834 39.396-20.194 69.003-46.066 83.367-1.905 1.061-19.726 11.521-27.335 15.989l-3.812 2.236a1.001 1.001 0 0 1-.502.135zm16.621-213.745c37.041 84.199 34.291 166.925-5.073 204.809 8.244-4.837 17.728-10.393 19.13-11.173 25.281-14.036 41.279-43.09 45.048-81.812 3.756-38.592-4.852-84.441-24.244-129.212z"/><path d="M334.943 340.283c-4.311-9.729-9.155-19.148-14.506-28.787-57.087-102.807-156.702-157.56-215.436-125.063 1.856-1.08 27.806-16.228 35.555-20.528a71.564 71.564 0 0 1 4.729-2.401c59.226-27.275 155.28 27.421 210.898 127.586a361.147 361.147 0 0 1 15.232 30.769z" fill="#fff"/><path d="M334.943 341.283a.993.993 0 0 1-.914-.595c-3.969-8.958-8.565-18.08-14.466-28.707-27.247-49.068-65.148-89.159-106.723-112.888-40.245-22.97-79.376-27.266-107.354-11.786a1 1 0 0 1-.987-1.739l.888-.518c18.021-10.506 30.016-17.429 34.685-20.02a72.705 72.705 0 0 1 4.794-2.434c28.889-13.305 68.154-7.453 107.733 16.05 40.69 24.165 77.789 63.925 104.46 111.957a362.963 362.963 0 0 1 15.274 30.854.999.999 0 0 1-.465 1.293l-36.474 18.424a.983.983 0 0 1-.451.109zm-191.63-165.127c21.646 0 45.895 7.147 70.519 21.201 41.888 23.907 80.058 64.271 107.48 113.654 5.72 10.301 10.223 19.2 14.118 27.906l34.691-17.524a361.962 361.962 0 0 0-14.811-29.818c-26.502-47.728-63.342-87.222-103.733-111.208-39.004-23.162-77.59-28.979-105.873-15.955a71.111 71.111 0 0 0-4.66 2.366c-3.498 1.94-11.123 6.322-22.326 12.828 7.684-2.305 15.931-3.45 24.595-3.45zm32.408 217.104a169.862 169.862 0 0 1-2.061-3.645c-30.945-56.227-35.93-115.618-14.518-146.765-6.873.59-13.299 2.386-19.077 5.49-39.732 21.351-41.012 93.179-3.531 161.404 6.801-3.182 38.448-16.04 39.187-16.484z"/><path d="M136.535 410.744a1 1 0 0 1-.877-.519c-24.35-44.323-33.264-92.854-23.263-126.654 4.947-16.723 14.352-29.21 27.196-36.112 5.783-3.107 12.332-4.994 19.464-5.606a1 1 0 0 1 .91 1.563c-10.313 15.002-14.647 37.489-12.204 63.317 2.522 26.665 11.78 55.158 26.773 82.399.815 1.48 1.215 2.177 2.052 3.627a1 1 0 0 1-.352 1.357c-.304.182-2.534 1.112-11.24 4.711-10.058 4.158-23.833 9.853-28.037 11.821a.96.96 0 0 1-.422.096zm20.607-166.679c-6.052.752-11.628 2.483-16.603 5.156-12.364 6.644-21.433 18.718-26.227 34.918-9.793 33.099-1.111 80.658 22.651 124.307 5.017-2.266 17.789-7.547 27.267-11.465 4.229-1.749 8.276-3.422 10.069-4.184-.514-.894-.896-1.571-1.517-2.699-15.124-27.479-24.465-56.241-27.013-83.175-2.391-25.299 1.643-47.507 11.373-62.858zm20.175 151.95c-.737.442-32.138 13.495-39.105 16.757 39.912 71.096 105.774 107.024 142.489 84.733a58.066 58.066 0 0 0 16.477-14.971c-36.494 3.23-86.41-29.778-119.861-86.519z"/><path d="M255.689 505.071c-5.81 0-11.952-.834-18.339-2.512-36.086-9.476-74.406-43.693-100.009-89.298a1 1 0 0 1 .448-1.395c4.266-1.997 17.72-7.678 27.544-11.826 5.686-2.401 11.056-4.668 11.496-4.898.473-.246 1.079-.094 1.35.365 15.989 27.122 36.22 49.75 58.503 65.439 21.105 14.858 42.542 22.17 60.409 20.592a1 1 0 0 1 .889 1.595 59.233 59.233 0 0 1-16.76 15.227c-7.35 4.461-15.991 6.711-25.531 6.711zm-116.071-91.845c25.341 44.678 62.907 78.121 98.239 87.399 16.337 4.29 30.973 2.916 42.325-3.977a57.177 57.177 0 0 0 14.834-12.965c-.991.049-1.99.074-2.993.074-37.85.002-84.306-34.642-115.109-86.462-1.366.599-4.452 1.905-10.803 4.587-9.145 3.862-21.442 9.054-26.493 11.344z"/><path d="M136.534 409.744c-37.4-68.183-36.172-140.069 3.531-161.404 38.162-20.507 104.521 15.726 142.356 83.859 4.29 7.726 7.619 14.358 11.003 22.092 6.994-2.547 41.617-13.784 41.518-14.008-4.311-9.729-8.955-19.028-14.307-28.666C263.508 208.742 163.724 153.823 105 186.433c-58.5 32.485-62.232 141.792-4.084 243.375 5.106-3.454 28.501-16.24 35.618-20.064z" fill="#F59E0B"/><path d="M100.916 430.808a1.002 1.002 0 0 1-.869-.504C81.465 397.841 68.39 362.966 62.236 329.45c-5.926-32.276-5.369-62.56 1.609-87.579 7.282-26.11 21.346-45.583 40.669-56.313 28.594-15.879 68.468-11.58 109.396 11.791 41.938 23.947 80.15 64.355 107.598 113.782 5.362 9.656 10.055 19.06 14.347 28.746.114.258.114.554.001.812-.246.557-.246.557-19.553 6.958-9.419 3.123-19.159 6.353-22.538 7.583a1.001 1.001 0 0 1-1.258-.539c-3.284-7.504-6.562-14.086-10.962-22.007-17.955-32.333-43.057-58.894-70.68-74.788-26.539-15.27-52.174-18.432-70.328-8.675-12.333 6.627-21.384 18.676-26.174 34.846-9.869 33.315-1.039 81.287 23.046 125.196a1.005 1.005 0 0 1-.403 1.362c-7.408 3.98-30.536 16.632-35.531 20.011a.988.988 0 0 1-.559.172zm42.444-252.694c-13.967 0-26.795 3.041-37.873 9.192-18.845 10.465-32.578 29.519-39.714 55.103-14.273 51.175-.674 122.354 35.486 185.981 6.214-3.938 26.113-14.843 33.916-19.051-23.966-44.119-32.676-92.259-22.728-125.842 4.945-16.692 14.332-29.154 27.145-36.039 18.78-10.092 45.122-6.918 72.272 8.704 27.934 16.073 53.302 42.904 71.431 75.551 4.264 7.677 7.483 14.107 10.67 21.321 4.003-1.415 12.994-4.396 21.711-7.285 7.23-2.397 15.285-5.068 17.93-6.011-4.153-9.299-8.688-18.35-13.844-27.637-27.272-49.112-65.216-89.248-106.841-113.016-24.343-13.898-48.27-20.971-69.561-20.971z"/><path d="M336.341 343.487c-6.851 2.422-34.228 11.051-41.489 14.056 25.499 59.715 23.36 117.187-14.15 139.961-36.739 22.306-102.585-13.544-142.489-84.733-6.993 3.871-30.793 17.107-35.516 20.136 58.164 100.008 155.512 158.876 214.041 126.373 52.697-29.263 59.951-122.601 19.603-215.793z" fill="#CACAEA"/><path d="M280.107 569.313c-21.527.001-45.747-7.623-71.038-22.668-40.801-24.271-78.885-64.486-107.236-113.234a1 1 0 0 1 .324-1.345c5.445-3.491 35.271-20.002 35.572-20.169a.999.999 0 0 1 1.356.386c25.305 45.144 63.117 78.997 98.683 88.349 16.368 4.305 31.034 2.927 42.415-3.982 35.206-21.375 40.604-75.824 13.749-138.713a1.002 1.002 0 0 1 .537-1.317c4.769-1.974 18.016-6.312 28.66-9.796 5.637-1.846 10.505-3.439 12.879-4.279a1.004 1.004 0 0 1 1.251.545c19.693 45.486 28.632 92.491 25.169 132.354-3.509 40.388-19.562 70.472-45.204 84.711-11.024 6.122-23.536 9.157-37.117 9.158zM104.049 433.242c28.132 48.084 65.762 87.722 106.042 111.684 40.612 24.159 78.313 28.945 106.162 13.48 51.34-28.51 59.686-120.264 19.538-213.669-2.601.896-7.016 2.341-12.04 3.986-9.974 3.266-22.24 7.282-27.58 9.368 26.809 63.459 20.978 118.454-14.951 140.268-11.854 7.197-27.059 8.652-43.96 4.207-35.844-9.425-73.873-43.271-99.431-88.438-4.737 2.626-27.443 15.233-33.78 19.114z"/><path d="M712.157 462.82c-54.754-63.257-124.436-92.677-171.401-71.049a71.08 71.08 0 0 0-4.729 2.401c-7.749 4.3-33.786 19.274-35.642 20.354 46.705-25.842 118.714 2.909 175.202 67.749.842-.467 33.57-18.103 36.57-19.455z" fill="#fff"/><path d="M675.586 483.274a1 1 0 0 1-.754-.343c-56.689-65.069-128.227-92.837-173.964-67.53a1 1 0 0 1-.987-1.739c1.576-.917 27.808-16.007 35.66-20.365a73.217 73.217 0 0 1 4.794-2.433c23.235-10.7 52.138-9.428 83.585 3.677 31.169 12.989 61.942 36.374 88.992 67.625a1 1 0 0 1-.344 1.566c-2.866 1.292-34.763 18.458-36.497 19.417a.996.996 0 0 1-.485.125zm-136.697-79.126c42.601 0 93.986 27.833 136.925 76.867 4.467-2.41 28.588-15.4 34.736-18.519-26.642-30.527-56.841-53.374-87.399-66.109-30.917-12.884-59.263-14.167-81.977-3.708a70.628 70.628 0 0 0-4.66 2.366c-4.229 2.346-13.789 7.806-21.954 12.486 7.665-2.272 15.826-3.383 24.329-3.383z"/><path d="M751.79 519.005c-11.099-19.988-23.811-38.159-37.516-54.235-.006.002-.008.006-.013.009-2.804 1.838-36.343 19.504-36.427 19.592 13.97 16.275 26.924 34.717 38.209 55.04 55.703 100.321 54.906 209.472.388 245.084 1.689-.986 28.753-16.894 31.165-18.236 58.722-32.602 61.323-144.384 4.194-247.254z" fill="#CACAEA"/><path d="M716.431 785.495a1 1 0 0 1-.548-1.837c54.478-35.585 54.156-144.936-.715-243.761-10.952-19.722-23.769-38.184-38.094-54.874a1 1 0 0 1 .04-1.346c.132-.137.132-.137 5.931-3.213 9.27-4.916 28.531-15.133 30.652-16.511a1 1 0 0 1 1.337.169c14.128 16.572 26.788 34.875 37.629 54.399 27.639 49.768 42.367 103.21 41.473 150.481-.895 47.29-17.251 82.14-46.056 98.132-1.907 1.061-19.735 11.527-27.348 15.996l-3.798 2.229a.999.999 0 0 1-.503.136zm-37.032-300.832c14.089 16.544 26.707 34.793 37.518 54.262 26.914 48.472 41.706 100.782 41.652 147.294-.046 39.698-10.852 71.187-30.716 90.412 8.274-4.854 17.846-10.462 19.256-11.247 28.156-15.632 44.147-49.875 45.028-96.421.888-46.925-13.752-100.008-41.222-149.473-10.636-19.153-23.032-37.124-36.852-53.424-4.053 2.358-20.78 11.23-30.081 16.164-1.909 1.013-3.567 1.892-4.583 2.433zm-134.056 6.101c2.159-7.549 5.226-14.325 9.21-20.12-6.873.59-13.299 2.385-19.077 5.49a47.909 47.909 0 0 0-11.499 8.644c7.574 1.915 14.156 3.946 21.366 5.986z"/><path d="M545.344 491.764c-.091 0-.183-.013-.273-.038-2.171-.614-4.286-1.228-6.388-1.837-4.975-1.443-9.673-2.807-14.95-4.142a1 1 0 0 1-.468-1.671 49.078 49.078 0 0 1 11.738-8.824c5.782-3.107 12.331-4.993 19.464-5.605a1 1 0 0 1 .91 1.563c-3.864 5.621-6.917 12.292-9.072 19.829a1 1 0 0 1-.961.725zm-19.398-7.514c4.623 1.202 8.849 2.428 13.295 3.718 1.788.519 3.587 1.041 5.421 1.563 1.967-6.582 4.616-12.514 7.891-17.672-6.052.752-11.628 2.482-16.602 5.155a46.86 46.86 0 0 0-10.005 7.236zm86.008 189.245c-6.375 4.056-33.793 22.996-34.158 23.317l-.091.082c34.702 31.705 73.345 43.621 98.408 28.404 6.563-3.984 12.038-9.036 16.477-14.971-23.918 2.117-53.6-11.342-80.636-36.832z"/><path d="M651.214 732.814c-22.372 0-49.157-12.316-74.185-35.183a1 1 0 0 1 .03-1.503l.727.674.001-.001-.652-.742c.664-.583 28.516-19.739 34.281-23.409a1 1 0 0 1 1.223.116c26.888 25.349 55.987 38.671 79.862 36.563a1 1 0 0 1 .889 1.595 59.215 59.215 0 0 1-16.759 15.227c-7.386 4.485-16.012 6.662-25.417 6.663zm-71.928-35.836c34.628 31.231 72.334 42.017 96.308 27.464a57.144 57.144 0 0 0 14.834-12.965c-23.804 1.154-52.278-12.104-78.59-36.719-6.583 4.268-27.946 18.999-32.552 22.22zm30.048-26.005c-15.097-14.587-28.432-32.067-40.264-53.564-24.631-44.753-33.036-90.539-24.553-123.464-7.578-1.116-23.05-6.188-23.185-6.26-25.952 29.35-21.5 91.516 11.261 151.042 12.314 22.374 26.418 40.592 42.204 55.454.105-.306 28.936-20.139 34.537-23.208z"/><path d="M574.797 695.181a1 1 0 0 1-.686-.272c-16.394-15.434-30.261-33.654-42.394-55.7-32.912-59.798-37.49-122.38-11.135-152.187a1 1 0 0 1 1.126-.264c.941.343 15.666 5.123 22.954 6.197a1 1 0 0 1 .824 1.239c-8.603 33.392.541 79.273 24.46 122.732 11.549 20.982 24.659 38.425 40.083 53.327a1 1 0 0 1-.215 1.597c-5.472 2.999-32.969 21.944-34.295 23.022a1.002 1.002 0 0 1-.722.309zm-53.15-206.336c-25.315 29.385-20.504 90.662 11.823 149.399 11.882 21.589 25.434 39.471 41.41 54.638 1.478-1.126 5.17-3.717 14.562-10.097 4.26-2.893 13.935-9.425 18.248-12.016-15.158-14.839-28.087-32.15-39.496-52.879-23.906-43.437-33.177-89.357-24.912-123.134-6.913-1.217-18.517-4.864-21.635-5.911zm-.315-1.16h.01z"/><path d="M574.797 694.181c-15.786-14.862-29.89-33.08-42.204-55.454-32.761-59.527-37.213-121.692-11.261-151.042-.522-.277-23.647-49.959-31.315-66.392-49.701 38.701-48.102 142.108 7.509 238.419 13.641 23.624 28.536 43.957 45.536 62.375 4.801-3.765 31.645-27.643 31.735-27.906z" fill="#FFD28C"/><path d="M543.062 723.086a.993.993 0 0 1-.734-.322c-17.159-18.59-32.097-39.052-45.667-62.554-26.782-46.383-42.188-96.56-43.38-141.286-1.184-44.408 11.645-79.361 36.122-98.421a1.002 1.002 0 0 1 1.521.366l2.627 5.632c8.172 17.524 27.243 58.422 28.549 60.541a1.002 1.002 0 0 1-.017 1.305c-25.807 29.185-21.123 90.825 11.389 149.897 12.031 21.861 25.773 39.919 42.013 55.208a1 1 0 0 1 .261 1.051c-.37 1.088-31.759 28.13-32.064 28.37a1.013 1.013 0 0 1-.62.213zm-53.416-300.224c-48.934 39.5-45.209 142.904 8.747 236.348 13.328 23.083 27.979 43.213 44.771 61.51 5.729-4.69 26.107-22.827 30.178-26.54-16.059-15.278-29.682-33.271-41.624-54.972-32.725-59.459-37.438-121.668-11.582-151.674-1.551-2.852-6.897-14.081-28.398-60.188z"/><path d="M716.047 539.411c-11.286-20.324-24.241-38.767-38.212-55.042-2.496 3.316-23.893 36.462-25.663 38.79 9.39 10.873 18.096 23.214 25.66 36.835 37.835 68.133 41.087 139.314-1.72 165.304-25.062 15.216-63.706 3.301-98.408-28.404-5.552 4.882-26.825 23.915-32.103 27.924 55.1 58.853 122.044 86.97 166.547 62.257 58.724-32.611 61.026-144.789 3.899-247.664z" fill="#CACAEA"/><path d="M675.629 797.063c-13.399 0-27.899-2.948-43.141-8.848-29.652-11.477-59.949-33.164-87.617-62.715a1.002 1.002 0 0 1 .126-1.48c4.194-3.185 18.528-15.897 27.092-23.493 2.11-1.872 3.846-3.411 4.955-4.386a1 1 0 0 1 1.335.013c34.875 31.864 73.035 42.968 97.215 28.288 20.231-12.283 30.819-35.101 30.619-65.987-.191-29.554-10.581-64.349-29.255-97.977-7.319-13.18-15.913-25.517-25.543-36.666a1 1 0 0 1-.039-1.259c.801-1.054 5.893-8.838 11.284-17.08 6.401-9.786 13.021-19.906 14.376-21.707a1 1 0 0 1 1.558-.05c14.415 16.795 27.311 35.37 38.327 55.208 27.655 49.802 42.437 103.316 41.62 150.684-.816 47.429-17.12 82.353-45.907 98.338-10.941 6.078-23.405 9.117-37.005 9.117zM547.08 724.93c27.26 28.926 57.023 50.154 86.13 61.42 30.141 11.666 57.27 11.613 78.453-.15 28.136-15.625 44.074-49.939 44.879-96.625.81-47.021-13.882-100.178-41.369-149.678-10.739-19.338-23.272-37.467-37.265-53.902-2.272 3.296-8.235 12.413-13.575 20.575-4.968 7.596-9.34 14.28-10.893 16.531 9.512 11.096 18.01 23.342 25.266 36.408 18.834 33.916 29.313 69.051 29.507 98.935.205 31.627-10.716 55.042-31.582 67.71-24.797 15.057-63.565 4.097-98.938-27.917-1.085.958-2.556 2.262-4.277 3.789-8.069 7.154-21.248 18.842-26.336 22.904z"/><path d="M650.053 520.746c1.772-2.252 23.602-34.99 25.669-38.824-56.534-64.889-128.605-93.633-175.31-67.697a71.1 71.1 0 0 0-7.279 4.659c1.704 3.636 30.383 65.826 30.845 65.893 3.381-3.433 7.211-6.34 11.499-8.644 30.123-16.186 77.211 2.309 114.576 44.613z" fill="#F59E0B"/><path d="M650.053 521.746a.998.998 0 0 1-.749-.338c-37.138-42.047-83.75-60.301-113.354-44.394a47.028 47.028 0 0 0-11.26 8.465 1 1 0 0 1-.855.288c-.765-.11-.779-.112-11.679-23.491-5.838-12.521-12.623-27.187-16.603-35.789-1.79-3.869-3.013-6.51-3.325-7.178a1.001 1.001 0 0 1 .317-1.233 72.04 72.04 0 0 1 7.381-4.725c46.573-25.865 119.177 2.062 176.55 67.915a1 1 0 0 1 .126 1.131c-1.969 3.65-23.781 36.45-25.763 38.967a1 1 0 0 1-.758.381l-.028.001zm-90.102-52.401c27.857 0 61.649 18.066 90.025 49.809 4.062-5.759 21.402-31.859 24.524-37.11-56.672-64.749-127.985-92.276-173.603-66.944a69.929 69.929 0 0 0-6.508 4.114c.549 1.181 1.594 3.44 2.979 6.434 6.648 14.368 23.471 50.723 26.851 57.486a48.964 48.964 0 0 1 10.785-7.881c7.422-3.989 15.869-5.908 24.947-5.908z"/><path d="M1187.083 880.832c-1.659-42.123-15.247-89.798-41.175-136.485-19.709-35.495-44.498-65.27-70.924-87.721-12.515 5.169-37.883 18.381-37.975 18.535 27.26 22.657 52.891 53.104 73.152 89.592 25.342 45.641 38.985 93.107 41.2 134.647.549.159 32.124-16.939 35.722-18.568z" fill="#FFD28C"/><path d="M1151.311 900.4c-.091 0-.155-.019-.228-.04a1.002 1.002 0 0 1-.721-.907c-2.291-42.971-16.878-90.636-41.075-134.215-19.364-34.873-44.578-65.754-72.918-89.308a1 1 0 0 1-.219-1.282c.526-.882 28.808-14.963 38.452-18.947a.999.999 0 0 1 1.029.162c27.603 23.451 52.206 53.879 71.15 87.998 25.283 45.527 39.564 92.877 41.3 136.931a.999.999 0 0 1-.587.951c-1.556.705-8.541 4.409-15.937 8.33-17.457 9.259-19.567 10.327-20.246 10.327zm-112.537-225.067c28.069 23.589 53.036 54.31 72.262 88.935 24.073 43.355 38.692 90.753 41.244 133.645 3.072-1.508 11.419-5.934 18.343-9.605 6.707-3.557 13.078-6.935 15.435-8.093-1.838-43.557-16.017-90.353-41.022-135.381-18.723-33.717-42.999-63.805-70.231-87.047-10.766 4.513-30.856 14.804-36.031 17.546zM1151.36 903.25c2.083 48.677-20.442 92.519-49.671 111.612 1.689-.986 32.03-15.275 42.831-25.793 25.876-25.195 44.108-55.427 42.67-105.048-.407.119-34.524 19.604-35.83 19.229z"/><path d="M1101.69 1015.862a1 1 0 0 1-.548-1.837c14.483-9.46 27.346-25.191 36.219-44.296 9.49-20.436 13.986-43.409 13.001-66.436a1 1 0 0 1 .381-.829.922.922 0 0 1 .628-.214c2.228-.559 22.52-11.941 30.198-16.248 5.134-2.88 5.149-2.885 5.339-2.94.299-.087.618-.032.87.149.251.182.403.471.413.781 1.264 43.595-11.588 75.234-42.973 105.793-9.367 9.121-32.979 20.907-40.738 24.78-1.158.579-2.073 1.035-2.287 1.16a.99.99 0 0 1-.503.137zm50.701-111.88c.866 23.086-3.698 46.093-13.217 66.589-7.172 15.443-16.925 28.731-28.049 38.387 10.267-5.305 25.681-13.773 32.698-20.606 30.55-29.748 43.289-60.53 42.408-102.67-.916.51-2.216 1.24-3.685 2.063-21.306 11.953-27.847 15.372-30.155 16.237zm-.758-1.694.004.001-.004-.001zm-.003-.001z"/><path d="M1072.22 654.699c-47.633-39.689-99.7-55.087-137.416-37.717a71.318 71.318 0 0 0-4.729 2.401c-7.75 4.299-33.787 19.273-35.643 20.354 37.431-20.71 90.569-6.665 139.645 33.404.027-.047 25.248-14.077 38.143-18.442z" fill="#fff"/><path d="M1034.077 674.141c-.229 0-.452-.079-.633-.226-24.241-19.792-49.76-33.381-73.795-39.297-24.405-6.007-46.79-3.934-64.732 5.994a1 1 0 0 1-.987-1.739c1.635-.951 27.72-15.958 35.66-20.364a73.352 73.352 0 0 1 4.794-2.434c37.526-17.281 89.29-3.127 138.478 37.856a1.002 1.002 0 0 1-.32 1.715c-12.155 4.115-36.364 17.407-37.923 18.335a.99.99 0 0 1-.542.16zM933.26 629.257c8.591 0 17.587 1.135 26.866 3.419 24.15 5.944 49.746 19.516 74.062 39.266 4.703-2.905 25.12-13.523 36.04-17.593-23.104-18.991-47.52-32.442-70.705-38.942-23.957-6.716-46.191-5.856-64.301 2.483a71.015 71.015 0 0 0-4.66 2.366c-4.262 2.364-13.755 7.786-21.881 12.444 7.691-2.291 15.93-3.443 24.579-3.443zm29.93 213.494c-30.945-56.227-35.93-115.618-14.518-146.765-6.873.59-13.299 2.385-19.077 5.49-39.765 21.369-40.459 94.319-2.883 162.594 39.801 72.317 106.488 109.054 143.519 86.57a58.066 58.066 0 0 0 16.477-14.971c-37.847 3.35-90.137-32.265-123.518-92.918z"/><path d="M1045.218 958.209c-5.919 0-12.182-.866-18.7-2.607-36.568-9.768-75.148-44.656-100.681-91.05-24.672-44.827-33.72-93.922-23.613-128.127 4.911-16.623 14.213-29.012 26.898-35.83 5.784-3.107 12.332-4.993 19.464-5.605.396-.037.756.159.95.493s.179.75-.04 1.069c-10.313 15.002-14.647 37.489-12.204 63.317 2.522 26.664 11.78 55.157 26.773 82.399 30.081 54.657 78.657 92.62 117.516 92.623 1.701 0 3.378-.072 5.039-.219a1 1 0 0 1 .889 1.594 59.207 59.207 0 0 1-16.759 15.228c-7.351 4.464-15.993 6.715-25.532 6.715zm-98.546-261.008c-6.051.752-11.628 2.483-16.603 5.156-12.205 6.559-21.171 18.535-25.928 34.635-9.96 33.711-.976 82.22 23.447 126.596 25.28 45.933 63.385 80.45 99.445 90.082 16.481 4.403 31.241 3.059 42.679-3.885a57.134 57.134 0 0 0 14.834-12.966c-.966.047-1.943.071-2.922.071-39.578.001-88.889-38.379-119.312-93.657-15.124-27.479-24.465-56.241-27.013-83.175-2.39-25.298 1.644-47.506 11.373-62.857z"/><path d="M1071.951 785.335c18.512 33.337 28.739 67.4 29.348 96.545 16.684 5.854 33.074 12.579 50.061 17.519-2.213-41.542-15.851-89.007-41.195-134.646-20.263-36.49-45.895-66.936-73.156-89.594-10.106 13.583-20.581 25.041-30.939 38.133 24.331 15.375 48.215 40.23 65.881 72.043z" fill="#FFD28C"/><path d="M1151.361 900.399a.98.98 0 0 1-.279-.04c-11.447-3.329-22.796-7.529-33.771-11.592-5.348-1.979-10.876-4.026-16.342-5.944a.999.999 0 0 1-.669-.922c-.608-29.12-10.987-63.242-29.223-96.081-16.697-30.068-39.973-55.525-65.54-71.683a1 1 0 0 1-.25-1.466c4.243-5.364 8.566-10.525 12.747-15.518 6.006-7.17 12.217-14.585 18.173-22.592a.995.995 0 0 1 .685-.396c.273-.031.548.049.758.224 28.528 23.712 53.906 54.791 73.39 89.877 24.339 43.829 39.014 91.8 41.32 135.078a1.002 1.002 0 0 1-.999 1.055zm-49.077-19.233c5.269 1.856 10.579 3.822 15.722 5.726 10.506 3.889 21.356 7.905 32.277 11.148-2.531-42.612-17.062-89.709-40.991-132.802-19.181-34.54-44.101-65.167-72.111-88.635-5.796 7.729-11.8 14.896-17.611 21.835-3.946 4.711-8.02 9.574-12.024 14.606 25.476 16.359 48.629 41.817 65.281 71.805 18.247 32.86 28.693 67.03 29.457 96.317z"/><path d="M1101.112 886.492c.068 29.315-9.815 51.452-31.087 64.368-37.031 22.484-103.718-14.252-143.519-86.57-37.576-68.275-36.883-141.225 2.883-162.593 19.866-10.675 46.229-6.659 73.376 9.914 10.248-12.845 20.769-25.049 31.311-38.47-49.122-40.106-102.314-54.141-139.752-33.352-58.723 32.609-61.727 143.58-2.885 245.484 58.095 100.612 155.899 159.973 214.623 127.363 32.162-17.86 47.273-58.172 45.093-109.167-17.032-4.892-33.34-11.09-50.043-16.977z" fill="#fff"/><path d="M1069.421 1022.674c-21.635.001-45.988-7.703-71.419-22.902-40.967-24.484-79.119-64.969-107.43-113.998-37.502-64.949-51.747-137.988-37.175-190.615 7.231-26.119 21.216-45.568 40.441-56.244 18.393-10.215 41.29-12.379 66.218-6.257 24.344 5.979 50.157 19.709 74.652 39.708a1 1 0 0 1 .153 1.392c-5.812 7.4-11.689 14.514-17.37 21.394-4.595 5.564-9.347 11.317-13.946 17.083a1 1 0 0 1-1.303.23c-27.404-16.73-53.108-20.243-72.381-9.887-12.205 6.559-21.171 18.535-25.928 34.634-9.96 33.711-.976 82.22 23.447 126.597 25.28 45.933 63.385 80.45 99.445 90.082 16.485 4.403 31.243 3.06 42.679-3.885 20.377-12.372 30.675-33.74 30.606-63.51a.999.999 0 0 1 1.332-.946c3.754 1.323 7.488 2.662 11.215 3.998 12.585 4.512 25.598 9.177 38.771 12.962a1 1 0 0 1 .723.918c2.283 53.389-13.913 92.484-45.606 110.083-11.028 6.125-23.541 9.163-37.124 9.163zM933.256 631.255c-14.17 0-27.184 3.155-38.446 9.409-18.745 10.41-32.399 29.438-39.485 55.029-14.434 52.128-.264 124.58 36.98 189.081 28.143 48.739 66.044 88.97 106.723 113.281 40.761 24.361 78.599 29.227 106.549 13.708 30.854-17.134 46.683-55.308 44.608-107.531-12.998-3.767-25.806-8.358-38.2-12.802-3.283-1.177-6.573-2.357-9.877-3.525-.257 29.784-10.872 51.247-31.564 63.811-11.914 7.234-27.208 8.654-44.231 4.107-36.569-9.768-75.148-44.656-100.682-91.05-24.671-44.827-33.719-93.922-23.613-128.127 4.911-16.623 14.213-29.013 26.898-35.83 19.743-10.608 45.859-7.236 73.617 9.485 4.438-5.548 9-11.072 13.418-16.422 5.477-6.63 11.132-13.478 16.732-20.583-24.038-19.477-49.297-32.849-73.102-38.695-9.098-2.235-17.916-3.346-26.325-3.346z"/></svg></g><g transform="translate(1040.0 1707.0) rotate(0.0 231.0 313.5) scale(1.0793056000074757 1.078056815485504)"><svg width="428.053" height="581.602" viewBox="0 0 428.053 581.602"><path d="M419.334 230.013 20.995 1.689c-1.918-1.101-3.861-.774-5.624.223-1.386.783-11.994 7.2-11.994 7.2l11.091 325.85c.005 1.73 1.032 3.26 2.424 4.196l396.987 240.26s9.896-5.726 11.223-6.616a4.37 4.37 0 0 0 1.952-3.653l-.174-326.056a15.032 15.032 0 0 0-7.546-13.08z" fill="#CACAEA"/><path d="M413.878 580.417a.995.995 0 0 1-.518-.145L16.374 340.012c-1.83-1.229-2.901-3.107-2.906-5.049L2.377 9.145a1 1 0 0 1 .481-.89c.434-.263 10.637-6.433 12.02-7.215 2.308-1.302 4.597-1.378 6.615-.219l398.338 228.324h.001a16.064 16.064 0 0 1 8.047 13.949l.174 326.053c-.006 1.834-.878 3.467-2.395 4.484-1.339.898-10.874 6.416-11.279 6.651a.997.997 0 0 1-.501.135zM4.395 9.664l11.071 325.263c.004 1.309.745 2.568 1.982 3.4l396.439 239.928c2.043-1.184 9.542-5.538 10.656-6.284a3.366 3.366 0 0 0 1.508-2.825l-.174-326.053a14.058 14.058 0 0 0-7.043-12.212L20.498 2.556c-1.414-.811-2.93-.738-4.636.226-1.185.67-9.346 5.6-11.467 6.882z"/><path d="M425.38 236.504c.875 1.931 1.506 4.057 1.499 6.25l.17 326.051c0 1.583-.792 3.225-1.948 3.996-1.282.863-10.637 6.281-11.223 6.616 1.014-.787 1.727-2.369 1.736-3.843l-.171-326.051c.008-2.567-.8-4.985-1.982-7.162z"/><path d="M413.879 580.417a1 1 0 0 1-.614-1.79c.775-.602 1.343-1.888 1.35-3.059l-.171-326.044c.007-2.151-.619-4.399-1.86-6.685a1.003 1.003 0 0 1 .438-1.375l11.918-5.857a1 1 0 0 1 1.352.485c1.06 2.34 1.595 4.583 1.588 6.665l.17 326.047c0 1.933-.961 3.874-2.393 4.828-1.326.893-10.827 6.393-11.282 6.653a1.005 1.005 0 0 1-.496.132zm.935-337.606c1.088 2.271 1.636 4.526 1.629 6.715l.171 326.047a6.184 6.184 0 0 1-.122 1.172c3.027-1.762 7.25-4.235 8.051-4.774.874-.583 1.506-1.914 1.506-3.167l-.17-326.05c.005-1.521-.334-3.159-1.008-4.886z"/><path d="M407.478 237.055 8.84 8.924C5.345 6.917.988 9.448 1 13.479l1.611 331.875c.005 1.73 1.032 3.26 2.424 4.196l403.514 230.442c2.941 1.718 6.637-.396 6.648-3.801l-.174-326.056a15.031 15.031 0 0 0-7.545-13.08z" fill="#fff"/><path d="M410.777 581.604c-.939 0-1.879-.25-2.733-.749L4.539 350.418c-1.852-1.241-2.923-3.118-2.929-5.061L0 13.484a6.17 6.17 0 0 1 3.103-5.411 6.17 6.17 0 0 1 6.235-.016l398.637 228.13.001.001a16.062 16.062 0 0 1 8.047 13.949l.174 326.053a5.362 5.362 0 0 1-2.729 4.69 5.406 5.406 0 0 1-2.691.724zM6.233 9.223c-.73 0-1.461.193-2.126.58A4.187 4.187 0 0 0 2 13.476L3.61 345.35c.004 1.279.745 2.539 1.982 3.37l403.452 230.404a3.39 3.39 0 0 0 3.43.021 3.384 3.384 0 0 0 1.722-2.957l-.174-326.053a14.058 14.058 0 0 0-7.043-12.212L8.343 9.792a4.235 4.235 0 0 0-2.11-.569z"/><path d="m378.555 359.21.919 158.345L39.043 323.031l-1.16-198.973 120.352 210.291 58.812-88.996 50.128 62.13 23.893 65.62z" fill="#0D9488"/><path d="M379.474 518.555a.996.996 0 0 1-.496-.132L38.547 323.899a.999.999 0 0 1-.504-.862l-1.16-198.974a1 1 0 0 1 1.868-.503l119.546 208.882 57.916-87.642a1 1 0 0 1 1.612-.077l50.128 62.131a.985.985 0 0 1 .161.286l23.61 64.846 86.674-13.765a1 1 0 0 1 1.158.982l.918 158.345a1 1 0 0 1-1 1.007zM40.04 322.449l338.424 193.377-.901-155.446-86.338 13.711a1.005 1.005 0 0 1-1.097-.646l-23.836-65.464-49.165-60.937-58.058 87.856a.971.971 0 0 1-.866.448 1.002 1.002 0 0 1-.836-.503L38.905 127.857zm240.526-99.303a.994.994 0 0 1-.496-.132l-32.208-18.432a1 1 0 1 1 .994-1.736l32.208 18.432a.999.999 0 0 1-.498 1.868zm-51.471-29.456a.994.994 0 0 1-.496-.132l-64.362-36.833a1 1 0 0 1 .994-1.737l64.362 36.833a1 1 0 0 1-.498 1.869z"/><path d="M158.041 340.729a1 1 0 0 1-1-.995l-.852-152.61a4.355 4.355 0 0 1 2.183-3.825 4.352 4.352 0 0 1 4.404-.019l129.963 74.375a1.001 1.001 0 0 1-.994 1.736l-129.963-74.375a2.374 2.374 0 0 0-2.402.01 2.376 2.376 0 0 0-1.19 2.087l.852 152.61a1 1 0 0 1-.994 1.005l-.007.001z"/><ellipse cx="158.017" cy="332.958" fill="#EE4266" rx="11.004" ry="19.353" transform="matrix(.866 -.5 .5 .866 -145.3085 123.6165)"/><path d="M164.232 351.608c-2.046 0-4.298-.687-6.617-2.046-3.775-2.213-7.324-5.978-9.994-10.603s-4.156-9.581-4.186-13.957c-.029-4.58 1.534-8.015 4.405-9.672 5.833-3.367 14.867 1.742 20.573 11.625 5.706 9.884 5.609 20.263-.22 23.628-1.184.686-2.521 1.025-3.961 1.025zm-12.468-35.285c-1.065 0-2.053.238-2.923.74-2.221 1.282-3.43 4.097-3.405 7.927.027 4.034 1.418 8.641 3.918 12.97 2.499 4.329 5.792 7.837 9.273 9.877 3.304 1.937 6.346 2.298 8.567 1.015 4.696-2.711 4.461-12.28-.513-20.896-4.052-7.02-10.228-11.633-14.917-11.633z"/></svg></g><g transform="translate(1300.0 1666.0) rotate(0.0 248.5 160.5) scale(1.0802610014910645 1.0772571221461915)"><svg width="460.074" height="297.979" viewBox="0 0 460.074 297.979"><path d="M252.626 128.031 29.223 3.265C16.125-4.148 1.773 7.768 1.111 22.597c-.337 7.535-1.655 29.38 28.302 49.139 49.964 32.955 133.259 79.829 207.259 120.223z" fill="#FFD28C"/><path d="M236.672 192.96c-.165 0-.33-.041-.479-.122-96.194-52.51-165.95-92.974-207.33-120.267C-1.25 52.709-.269 30.978.101 22.797l.011-.244c.377-8.436 5.11-16.373 12.061-20.22 5.683-3.146 11.913-3.125 17.543.062l223.397 124.763a1 1 0 0 1 .483 1.115l-15.954 63.929a1.003 1.003 0 0 1-.97.758zM20.904 1.999c-2.625 0-5.253.694-7.763 2.083C6.787 7.601 2.457 14.886 2.11 22.642l-.011.246C1.743 30.759.798 51.666 29.963 70.902c41.169 27.155 110.495 67.381 206.051 119.561l15.456-61.931L28.736 4.138c-2.519-1.426-5.174-2.139-7.832-2.139z"/><path d="M112.706 125.482s265.944 144.1 310.467 168.471c17.629 9.65 38.845-5.159 35.563-24.987-2.383-14.399-10.875-30.382-32.41-43.927L127.299 55.809z" fill="#CACAEA"/><path d="M434.837 297.96c-4.152 0-8.319-1.036-12.145-3.13-44.011-24.092-307.804-167.028-310.463-168.469a1 1 0 0 1-.502-1.084l14.593-69.672a.997.997 0 0 1 1.47-.665l299.027 169.23c18.912 11.894 29.97 26.902 32.903 44.634 1.57 9.487-2.35 18.854-10.231 24.445-4.408 3.127-9.52 4.711-14.652 4.711zM113.838 124.957c14.754 7.995 266.875 144.613 309.815 168.119 7.876 4.311 17.332 3.751 24.68-1.459 7.362-5.223 10.882-13.629 9.416-22.488-2.837-17.142-13.588-31.691-31.955-43.243L127.997 57.354z"/><path d="M147.399 68.365c17.944 26.358 20.659 56.009 6.545 67.548-.455.372-5.19 4.293-5.68 4.627-15.691 10.682-39.166-6.282-57.688-33.491S64.018 52.273 79.709 41.591c.427-.29 6.602-3.712 7.046-3.967 15.887-9.126 42.625 4.272 60.644 30.741z"/><path d="M137.653 144.772c-5.395 0-11.359-1.979-17.699-5.92-9.991-6.211-20.719-17.306-30.204-31.241-16.657-24.466-28.189-54.875-10.604-66.847.29-.198 2.218-1.279 5.673-3.205.755-.421 1.315-.733 1.438-.803 16.459-9.455 43.682 4.182 61.969 31.045 18.168 26.686 20.958 56.944 6.352 68.885l-.603.496c-3.343 2.758-4.834 3.97-5.146 4.183-3.341 2.274-7.095 3.407-11.176 3.407zM98.262 35.721c-4.017 0-7.744.893-11.01 2.769-.124.071-.692.388-1.46.816-1.686.939-5.194 2.895-5.523 3.112-10.728 7.305-13.439 27.972 11.133 64.068 9.333 13.709 19.848 24.601 29.607 30.668 7.261 4.514 17.785 8.623 26.692 2.559.375-.257 3.855-3.129 5-4.072l.609-.502c13.811-11.291 10.851-40.374-6.738-66.21-13.987-20.548-33.19-33.208-48.31-33.208z"/><ellipse cx="111.912" cy="92.161" fill="#fff" rx="34.749" ry="60.255" transform="matrix(.8266 -.5627 .5627 .8266 -32.461 78.9563)"/><path d="M132.982 146.701c-5.465 0-11.507-1.532-17.84-4.592-11.985-5.789-23.628-16.383-32.781-29.83-9.155-13.447-14.743-28.162-15.734-41.436-1.007-13.472 2.834-23.884 10.814-29.317 7.981-5.433 19.077-5.188 31.24.688 11.985 5.789 23.628 16.383 32.781 29.83 9.155 13.447 14.743 28.163 15.734 41.436 1.007 13.472-2.834 23.884-10.814 29.317-3.825 2.603-8.368 3.903-13.4 3.904zM90.849 39.623c-4.637 0-8.798 1.183-12.283 3.556-7.364 5.014-10.896 14.786-9.945 27.515.966 12.929 6.433 27.298 15.393 40.459 8.96 13.162 20.324 23.516 31.999 29.155 11.492 5.551 21.88 5.849 29.245.834 7.364-5.014 10.896-14.785 9.945-27.515-.966-12.929-6.433-27.298-15.393-40.459-8.96-13.161-20.324-23.515-31.999-29.154-6.053-2.924-11.801-4.391-16.962-4.391z"/></svg></g><g transform="translate(1304.0 1511.0) rotate(0.0 248.5 161.0) scale(1.0825174520544962 1.0811246382261497)"><svg width="459.115" height="297.838" viewBox="0 0 459.115 297.838"><path d="M251.667 127.891 28.264 3.124C15.167-4.288.391 9.037 1.019 22.448c.353 7.534-2.523 29.389 27.434 49.148 49.964 32.955 133.259 79.829 207.259 120.223z" fill="#CACAEA"/><path d="M235.713 192.819c-.165 0-.33-.041-.479-.122C139.047 140.192 69.291 99.728 27.902 72.431.249 54.191.123 34.393.063 24.879a60.82 60.82 0 0 0-.042-2.383C-.334 14.93 4.011 7.029 10.832 2.835c5.772-3.55 12.307-3.76 17.925-.581l223.397 124.764a1 1 0 0 1 .483 1.115l-15.954 63.928a1.003 1.003 0 0 1-.97.758zM20.379 1.987c-2.854 0-5.737.852-8.499 2.551C5.659 8.363 1.696 15.542 2.019 22.402c.033.703.038 1.529.044 2.464.059 9.167.18 28.244 26.941 45.895 41.178 27.159 110.504 67.385 206.052 119.56l15.456-61.93L27.777 3.997c-2.37-1.341-4.872-2.01-7.398-2.01z"/><path d="M235.713 191.819c55.209 30.137 141.978 77.622 186.5 101.993 17.629 9.65 38.845-5.159 35.563-24.987-2.383-14.399-10.875-30.382-32.41-43.927l-173.7-97.008z" fill="#FFD28C"/><path d="M433.878 297.82c-4.153 0-8.319-1.036-12.145-3.13-46.422-25.411-132.381-72.451-186.5-101.993a1.001 1.001 0 0 1-.491-1.12l15.954-63.928a1 1 0 0 1 1.458-.631l173.7 97.008c18.917 11.896 29.975 26.905 32.908 44.636 1.57 9.487-2.35 18.854-10.231 24.445-4.409 3.128-9.52 4.713-14.653 4.713zM236.87 191.312c54.157 29.563 139.594 76.318 185.824 101.624 7.874 4.311 17.332 3.752 24.68-1.459 7.362-5.223 10.882-13.629 9.416-22.488-2.837-17.142-13.588-31.691-31.955-43.243L252.32 129.401z"/><path d="M266.587 139.487c17.944 26.358 20.659 56.009 6.545 67.548-.455.372-5.19 4.293-5.68 4.627-15.691 10.682-39.166-6.282-57.688-33.491s-26.558-54.776-10.867-65.458c.427-.29 6.602-3.712 7.046-3.967 15.886-9.126 42.625 4.272 60.644 30.741z"/><path d="M256.841 215.895c-5.395 0-11.359-1.979-17.699-5.92-9.991-6.211-20.719-17.306-30.204-31.241-9.73-14.292-16.1-27.879-18.418-39.29-2.597-12.78.105-22.31 7.814-27.558.29-.198 2.218-1.279 5.673-3.205.755-.421 1.315-.733 1.438-.803 16.462-9.455 43.681 4.183 61.969 31.045 18.168 26.686 20.958 56.944 6.352 68.885l-.603.496c-3.343 2.758-4.834 3.97-5.146 4.183-3.341 2.274-7.095 3.408-11.176 3.408zM217.45 106.844c-4.017 0-7.744.893-11.01 2.769-.124.071-.692.388-1.46.816-1.686.939-5.194 2.895-5.523 3.112-7.088 4.825-9.436 13.406-6.978 25.504 2.267 11.153 8.529 24.488 18.11 38.562 9.333 13.709 19.848 24.601 29.607 30.668 7.262 4.514 17.785 8.623 26.692 2.559.375-.257 3.855-3.129 5-4.072l.609-.502c13.811-11.291 10.851-40.374-6.738-66.21-13.986-20.547-33.19-33.206-48.309-33.206z"/><ellipse cx="230.909" cy="163.886" fill="#fff" rx="34.749" ry="60.255" transform="matrix(.8266 -.5627 .5627 .8266 -52.1934 158.3567)"/><path d="M252.081 218.372c-15.991 0-36.194-13.026-50.724-34.368-19.008-27.92-21.215-59.66-4.92-70.753 16.294-11.093 45.016 2.598 64.022 30.517 9.154 13.447 14.742 28.162 15.734 41.436 1.007 13.472-2.834 23.884-10.815 29.317-3.838 2.613-8.368 3.851-13.297 3.851zM209.86 111.349c-4.569 0-8.752 1.142-12.297 3.555-15.383 10.473-12.938 40.966 5.447 67.975 18.388 27.009 45.857 40.46 61.244 29.989 7.365-5.014 10.897-14.785 9.946-27.515-.967-12.929-6.433-27.297-15.393-40.459-14.151-20.786-33.687-33.545-48.947-33.545z"/></svg></g></svg>